solid ASCII
  facet normal -1.000000e+00 0.000000e+00 0.000000e+00
    outer loop
      vertex   -1.208791e+01 4.949202e+01 0.000000e+00
      vertex   -1.208791e+01 2.987767e+01 0.000000e+00
      vertex   -1.208791e+01 4.949202e+01 2.000000e+01
    endloop
  endfacet
  facet normal -1.000000e+00 -0.000000e+00 0.000000e+00
    outer loop
      vertex   -1.208791e+01 4.949202e+01 2.000000e+01
      vertex   -1.208791e+01 2.987767e+01 0.000000e+00
      vertex   -1.208791e+01 2.987767e+01 2.000000e+01
    endloop
  endfacet
  facet normal 0.000000e+00 1.000000e+00 -0.000000e+00
    outer loop
      vertex   1.824591e+01 4.949202e+01 0.000000e+00
      vertex   -1.208791e+01 4.949202e+01 0.000000e+00
      vertex   1.824591e+01 4.949202e+01 2.000000e+01
    endloop
  endfacet
  facet normal 0.000000e+00 1.000000e+00 0.000000e+00
    outer loop
      vertex   1.824591e+01 4.949202e+01 2.000000e+01
      vertex   -1.208791e+01 4.949202e+01 0.000000e+00
      vertex   -1.208791e+01 4.949202e+01 2.000000e+01
    endloop
  endfacet
  facet normal 1.000000e+00 0.000000e+00 0.000000e+00
    outer loop
      vertex   1.824591e+01 2.987767e+01 0.000000e+00
      vertex   1.824591e+01 4.949202e+01 0.000000e+00
      vertex   1.824591e+01 2.987767e+01 2.000000e+01
    endloop
  endfacet
  facet normal 1.000000e+00 -0.000000e+00 0.000000e+00
    outer loop
      vertex   1.824591e+01 2.987767e+01 2.000000e+01
      vertex   1.824591e+01 4.949202e+01 0.000000e+00
      vertex   1.824591e+01 4.949202e+01 2.000000e+01
    endloop
  endfacet
  facet normal 0.000000e+00 -1.000000e+00 0.000000e+00
    outer loop
      vertex   -1.208791e+01 2.987767e+01 0.000000e+00
      vertex   1.824591e+01 2.987767e+01 0.000000e+00
      vertex   -1.208791e+01 2.987767e+01 2.000000e+01
    endloop
  endfacet
  facet normal 0.000000e+00 -1.000000e+00 0.000000e+00
    outer loop
      vertex   -1.208791e+01 2.987767e+01 2.000000e+01
      vertex   1.824591e+01 2.987767e+01 0.000000e+00
      vertex   1.824591e+01 2.987767e+01 2.000000e+01
    endloop
  endfacet
  facet normal 0.000000e+00 0.000000e+00 1.000000e+00
    outer loop
      vertex   -1.208791e+01 2.987767e+01 2.000000e+01
      vertex   1.824591e+01 2.987767e+01 2.000000e+01
      vertex   -1.208791e+01 4.949202e+01 2.000000e+01
    endloop
  endfacet
  facet normal -0.000000e+00 0.000000e+00 1.000000e+00
    outer loop
      vertex   -1.208791e+01 4.949202e+01 2.000000e+01
      vertex   1.824591e+01 2.987767e+01 2.000000e+01
      vertex   1.824591e+01 4.949202e+01 2.000000e+01
    endloop
  endfacet
  facet normal 0.000000e+00 0.000000e+00 -1.000000e+00
    outer loop
      vertex   1.824591e+01 2.987767e+01 0.000000e+00
      vertex   -1.208791e+01 2.987767e+01 0.000000e+00
      vertex   1.824591e+01 4.949202e+01 0.000000e+00
    endloop
  endfacet
  facet normal -0.000000e+00 0.000000e+00 -1.000000e+00
    outer loop
      vertex   1.824591e+01 4.949202e+01 0.000000e+00
      vertex   -1.208791e+01 2.987767e+01 0.000000e+00
      vertex   -1.208791e+01 4.949202e+01 0.000000e+00
    endloop
  endfacet
endsolid
